<?xml version="1.0" standalone="no"?>
<!DOCTYPE svg PUBLIC "-//W3C//DTD SVG 20010904//EN"
 "http://www.w3.org/TR/2001/REC-SVG-20010904/DTD/svg10.dtd">
<svg version="1.0" xmlns="http://www.w3.org/2000/svg"
 width="260.000000pt" height="260.000000pt" viewBox="0 0 260.000000 260.000000"
 preserveAspectRatio="xMidYMid meet">
<metadata>
Created by potrace 1.11, written by Peter Selinger 2001-2013
</metadata>
<g transform="translate(0.000000,260.000000) scale(0.100000,-0.100000)"
fill="#000000" stroke="none">
<path d="M995 2441 c-49 -17 -76 -37 -107 -80 -32 -45 -33 -49 -37 -163 l-3
-118 -121 0 c-66 0 -117 3 -114 7 4 3 2 12 -4 20 -8 9 -42 13 -121 13 -101 0
-110 -2 -115 -20 -5 -17 -14 -20 -70 -20 -74 0 -112 -16 -144 -61 l-22 -31 0
-853 0 -853 22 -31 c32 -45 70 -61 145 -61 43 0 66 -4 68 -12 7 -19 1848 -20
1855 -1 4 9 26 13 72 13 74 0 117 19 148 67 17 26 18 75 18 878 0 802 -1 853
-18 879 -31 46 -74 66 -148 66 -58 0 -67 3 -72 20 -5 18 -14 20 -117 20 -102
0 -112 -2 -117 -19 -4 -16 -16 -20 -71 -23 -37 -2 -91 -2 -119 0 l-53 3 0 103
c0 117 -12 156 -62 206 -58 58 -69 60 -385 59 -158 -1 -297 -4 -308 -8z m595
-151 c17 -17 20 -33 20 -115 l0 -95 -311 0 -311 0 4 100 c3 85 6 101 23 114
17 13 65 15 288 16 254 0 268 -1 287 -20z"/>
</g>
</svg>
